<?xml version="1.0" encoding="UTF-8" standalone="no"?>
<!-- Created with Inkscape (http://www.inkscape.org/) -->

<svg
   xmlns:dc="http://purl.org/dc/elements/1.1/"
   xmlns:cc="http://creativecommons.org/ns#"
   xmlns:rdf="http://www.w3.org/1999/02/22-rdf-syntax-ns#"
   xmlns:svg="http://www.w3.org/2000/svg"
   xmlns="http://www.w3.org/2000/svg"
   xmlns:sodipodi="http://sodipodi.sourceforge.net/DTD/sodipodi-0.dtd"
   xmlns:inkscape="http://www.inkscape.org/namespaces/inkscape"
   id="svg3336"
   version="1.1"
   inkscape:version="0.91 r13725"
   width="237"
   height="77"
   viewBox="0 0 237 77"
   sodipodi:docname="poisk.svg"
   inkscape:export-filename="D:\poisk.png"
   inkscape:export-xdpi="200"
   inkscape:export-ydpi="200">
  <metadata
     id="metadata3342">
    <rdf:RDF>
      <cc:Work
         rdf:about="">
        <dc:format>image/svg+xml</dc:format>
        <dc:type
           rdf:resource="http://purl.org/dc/dcmitype/StillImage" />
        <dc:title />
      </cc:Work>
    </rdf:RDF>
  </metadata>
  <defs
     id="defs3340">
    <filter
       inkscape:collect="always"
       style="color-interpolation-filters:sRGB"
       id="filter4191"
       x="-0.036156362"
       width="1.0723127"
       y="-0.035844984"
       height="1.07169">
      <feGaussianBlur
         inkscape:collect="always"
         stdDeviation="0.40633846"
         id="feGaussianBlur4193" />
    </filter>
    <filter
       inkscape:collect="always"
       style="color-interpolation-filters:sRGB"
       id="filter4203"
       x="-0.036156362"
       width="1.0723127"
       y="-0.035844984"
       height="1.07169">
      <feGaussianBlur
         inkscape:collect="always"
         stdDeviation="0.40633846"
         id="feGaussianBlur4205" />
    </filter>
    <filter
       inkscape:collect="always"
       style="color-interpolation-filters:sRGB"
       id="filter4283"
       x="-0.0035140678"
       width="1.0070281"
       y="-0.042350384"
       height="1.0847008">
      <feGaussianBlur
         inkscape:collect="always"
         stdDeviation="0.25512591"
         id="feGaussianBlur4285" />
    </filter>
    <filter
       inkscape:collect="always"
       style="color-interpolation-filters:sRGB"
       id="filter4319"
       x="-0.0067474686"
       width="1.0134949"
       y="-0.022046271"
       height="1.0440925">
      <feGaussianBlur
         inkscape:collect="always"
         stdDeviation="0.30266975"
         id="feGaussianBlur4321" />
    </filter>
    <filter
       inkscape:collect="always"
       style="color-interpolation-filters:sRGB"
       id="filter4323"
       x="-0.017907974"
       width="1.0358159"
       y="-0.021622223"
       height="1.0432444">
      <feGaussianBlur
         inkscape:collect="always"
         stdDeviation="0.2850586"
         id="feGaussianBlur4325" />
    </filter>
  </defs>
  <sodipodi:namedview
     pagecolor="#ffffff"
     bordercolor="#666666"
     borderopacity="1"
     objecttolerance="10"
     gridtolerance="10000"
     guidetolerance="10"
     inkscape:pageopacity="0"
     inkscape:pageshadow="2"
     inkscape:window-width="1366"
     inkscape:window-height="705"
     id="namedview3338"
     showgrid="true"
     inkscape:zoom="2.0000001"
     inkscape:cx="47.50211"
     inkscape:cy="48.863742"
     inkscape:window-x="-8"
     inkscape:window-y="-8"
     inkscape:window-maximized="1"
     inkscape:current-layer="svg3336">
    <inkscape:grid
       type="xygrid"
       id="grid3346" />
  </sodipodi:namedview>
  <path
     transform="matrix(0.64869225,-0.65951156,0.66309286,0.64518873,5.1926008,1.9628836)"
     style="fill:#004990;fill-opacity:1;fill-rule:evenodd;stroke:#004990;stroke-width:1.16097784px;stroke-linecap:butt;stroke-linejoin:miter;stroke-opacity:1;filter:url(#filter4191)"
     d="m 61.928093,109.84489 26.702488,0 0,11.60977 -26.702488,0 z"
     id="rect3371"
     inkscape:connector-curvature="0" />
  <path
     transform="matrix(0.64869225,-0.65951156,0.66309286,0.64518873,5.1926008,1.9628836)"
     style="fill:#959ca1;fill-opacity:1;fill-rule:evenodd;stroke:#959ca1;stroke-width:1.16097784px;stroke-linecap:butt;stroke-linejoin:miter;stroke-opacity:1;filter:url(#filter4203)"
     d="m 72.496262,117.43017 26.702488,0 0,11.60978 -26.702488,0 z"
     id="rect3373"
     inkscape:connector-curvature="0" />
  <g
     style="font-style:normal;font-variant:normal;font-weight:normal;font-stretch:normal;font-size:40px;line-height:125%;font-family:Verdana;-inkscape-font-specification:Verdana;letter-spacing:0px;word-spacing:0px;fill:#004990;fill-opacity:1;stroke:#004990;stroke-width:0.47993442;stroke-linecap:butt;stroke-linejoin:miter;stroke-opacity:1;filter:url(#filter4319);stroke-miterlimit:4;stroke-dasharray:none"
     id="text4196"
     transform="matrix(1.0217703,0,0,1.0622407,-47.764859,12.302904)">
    <path
       d="m 70.566406,32 -8.242187,0 0,-25.3125 -2.441407,0 0,25.3125 -8.242187,0 0,-31.640625 18.925781,0 0,31.640625 z"
       style="font-style:normal;font-variant:normal;font-weight:normal;font-stretch:condensed;font-family:Impact;-inkscape-font-specification:'Impact Condensed';fill:#004990;fill-opacity:1;stroke:#004990;stroke-opacity:1;stroke-width:0.47993442;stroke-miterlimit:4;stroke-dasharray:none"
       id="path4209"
       inkscape:connector-curvature="0" />
    <path
       d="m 92.617187,18.894531 q 0,4.765625 -0.234375,6.757813 -0.214843,1.972656 -1.40625,3.613281 -1.171875,1.640625 -3.183593,2.519531 -2.011719,0.878906 -4.6875,0.878906 -2.539063,0 -4.570313,-0.820312 -2.011719,-0.839844 -3.242187,-2.5 Q 74.0625,27.683594 73.828125,25.730469 73.59375,23.777344 73.59375,18.894531 l 0,-5.410156 q 0,-4.765625 0.214844,-6.7382813 0.234375,-1.9921875 1.40625,-3.6328124 1.191406,-1.6406251 3.203125,-2.5195313 2.011718,-0.87890625 4.6875,-0.87890625 2.539062,0 4.550781,0.83984375 2.03125,0.8203125 3.261719,2.4804688 1.230468,1.6601562 1.464843,3.6132812 0.234375,1.953125 0.234375,6.8359375 l 0,5.410156 z M 84.394531,8.5039063 q 0,-2.2070313 -0.253906,-2.8125001 -0.234375,-0.625 -0.996094,-0.625 -0.644531,0 -0.996094,0.5078125 Q 81.816406,6.0625 81.816406,8.5039063 l 0,14.7656247 q 0,2.753906 0.214844,3.398438 0.234375,0.644531 1.054687,0.644531 0.839844,0 1.074219,-0.742188 0.234375,-0.742187 0.234375,-3.535156 l 0,-14.5312497 z"
       style="font-style:normal;font-variant:normal;font-weight:normal;font-stretch:condensed;font-family:Impact;-inkscape-font-specification:'Impact Condensed';fill:#004990;fill-opacity:1;stroke:#004990;stroke-opacity:1;stroke-width:0.47993442;stroke-miterlimit:4;stroke-dasharray:none"
       id="path4211"
       inkscape:connector-curvature="0" />
    <path
       d="m 114.0625,32 -6.875,0 0,-14.394531 L 102.91016,32 l -7.207035,0 0,-31.640625 6.875005,0 0,14.277344 4.60937,-14.277344 6.875,0 0,31.640625 z"
       style="font-style:normal;font-variant:normal;font-weight:normal;font-stretch:condensed;font-family:Impact;-inkscape-font-specification:'Impact Condensed';fill:#004990;fill-opacity:1;stroke:#004990;stroke-opacity:1;stroke-width:0.47993442;stroke-miterlimit:4;stroke-dasharray:none"
       id="path4213"
       inkscape:connector-curvature="0" />
    <path
       d="m 136.54297,14.167969 -8.22266,0 0,-5.5078127 q 0,-2.4023438 -0.27344,-2.9882813 -0.2539,-0.6054688 -1.15234,-0.6054688 -1.01562,0 -1.28906,0.7226563 -0.27344,0.7226562 -0.27344,3.125 l 0,14.6874995 q 0,2.304688 0.27344,3.007813 0.27344,0.703125 1.23047,0.703125 0.91797,0 1.1914,-0.703125 0.29297,-0.703125 0.29297,-3.300781 l 0,-3.964844 8.22266,0 0,1.230469 q 0,4.902343 -0.70313,6.953125 -0.68359,2.050781 -3.0664,3.59375 -2.36328,1.542968 -5.83985,1.542968 -3.61328,0 -5.95703,-1.308593 -2.34375,-1.308594 -3.10547,-3.613282 -0.76171,-2.324218 -0.76171,-6.972656 l 0,-9.238281 q 0,-3.4179687 0.23437,-5.1171875 0.23438,-1.71875 1.38672,-3.3007812 1.17187,-1.5820313 3.22266,-2.4804688 2.07031,-0.91796875 4.74609,-0.91796875 3.63281,0 5.99609,1.40624995 2.36328,1.4062501 3.10547,3.515625 0.74219,2.0898438 0.74219,6.5234373 l 0,3.007813 z"
       style="font-style:normal;font-variant:normal;font-weight:normal;font-stretch:condensed;font-family:Impact;-inkscape-font-specification:'Impact Condensed';fill:#004990;fill-opacity:1;stroke:#004990;stroke-opacity:1;stroke-width:0.47993442;stroke-miterlimit:4;stroke-dasharray:none"
       id="path4215"
       inkscape:connector-curvature="0" />
    <path
       d="m 139.53125,0.359375 8.24219,0 0.0391,13.359375 q 2.32422,-0.05859 2.40234,-2.578125 l 0.15625,-6.171875 q 0.0781,-3.4179688 1.32813,-4.609375 l 7.59765,0 Q 158.18359,1.5117187 158.20312,5.125 l 0.0391,5.429688 q 0.0391,4.921875 -5.54688,5.605468 5.58594,0.683594 5.54688,5.683594 l -0.0391,5.039062 q -0.0195,3.59375 1.09375,5.117188 l -7.59765,0 q -1.32813,-1.191406 -1.32813,-4.609375 l 0,-6.171875 q 0,-1.171875 -0.72265,-1.875 -0.70313,-0.722656 -1.83594,-0.742188 L 147.77344,32 l -8.24219,0 0,-31.640625 z"
       style="font-style:normal;font-variant:normal;font-weight:normal;font-stretch:condensed;font-family:Impact;-inkscape-font-specification:'Impact Condensed';fill:#004990;fill-opacity:1;stroke:#004990;stroke-opacity:1;stroke-width:0.47993442;stroke-miterlimit:4;stroke-dasharray:none"
       id="path4217"
       inkscape:connector-curvature="0" />
  </g>
  <g
     style="font-style:normal;font-weight:normal;font-size:40px;line-height:125%;font-family:sans-serif;letter-spacing:0px;word-spacing:0px;fill:#004990;fill-opacity:1;stroke:#004990;stroke-width:0.45200894;stroke-linecap:butt;stroke-linejoin:miter;stroke-opacity:1;filter:url(#filter4323);stroke-miterlimit:4;stroke-dasharray:none"
     id="text4200"
     transform="matrix(1.1061728,0,0,1.1061728,-48.580241,11.602469)">
    <path
       d="m 225,32 -6.875,0 0,-14.394531 L 213.84766,32 l -7.20704,0 0,-31.640625 6.875,0 0,14.277344 4.60938,-14.277344 6.875,0 L 225,32 Z"
       style="font-style:normal;font-variant:normal;font-weight:normal;font-stretch:condensed;font-family:Impact;-inkscape-font-specification:'Impact Condensed';fill:#004990;fill-opacity:1;stroke:#004990;stroke-opacity:1;stroke-width:0.45200894;stroke-miterlimit:4;stroke-dasharray:none"
       id="path4220"
       inkscape:connector-curvature="0" />
    <path
       d="m 244.84375,0.37890625 0,6.32812495 -4.88281,0 0,25.2929688 -8.22266,0 0,-25.2929688 -4.86328,0 0,-6.32812495 17.96875,0 z"
       style="font-style:normal;font-variant:normal;font-weight:normal;font-stretch:condensed;font-family:Impact;-inkscape-font-specification:'Impact Condensed';fill:#004990;fill-opacity:1;stroke:#004990;stroke-opacity:1;stroke-width:0.45200894;stroke-miterlimit:4;stroke-dasharray:none"
       id="path4222"
       inkscape:connector-curvature="0" />
  </g>
  <g
     style="font-style:normal;font-weight:normal;font-size:40px;line-height:125%;font-family:sans-serif;letter-spacing:0px;word-spacing:0px;fill:#004990;fill-opacity:1;stroke:#004990;stroke-width:0.08797445;stroke-linecap:butt;stroke-linejoin:miter;stroke-opacity:1;stroke-miterlimit:4;stroke-dasharray:none;filter:url(#filter4283)"
     id="text4204"
     transform="matrix(1.2453862,0,0,1.0374873,-113.96844,0.54305922)">
    <path
       d="m 102.4707,67 -2.944333,0 0,-3.581543 -1.062012,0 0,3.581543 -2.937011,0 0,-9.719238 2.937011,0 0,3.493652 1.062012,0 0,-3.493652 2.944333,0 0,9.719238 z"
       style="font-style:normal;font-variant:normal;font-weight:normal;font-stretch:condensed;font-size:15px;font-family:Impact;-inkscape-font-specification:'Impact Condensed';fill:#004990;fill-opacity:1;stroke:#004990;stroke-opacity:1;stroke-width:0.08797445;stroke-miterlimit:4;stroke-dasharray:none"
       id="path4225"
       inkscape:connector-curvature="0" />
    <path
       d="m 106.16943,61.04541 -2.77588,0 0,-0.651855 q 0,-1.12793 0.25635,-1.73584 0.26367,-0.615235 1.04737,-1.083985 0.78369,-0.46875 2.03613,-0.46875 1.50146,0 2.26318,0.534668 0.76172,0.527344 0.91553,1.303711 0.15381,0.769043 0.15381,3.178711 l 0,4.87793 -2.87842,0 0,-0.864258 q -0.271,0.52002 -0.70312,0.783692 -0.42481,0.256347 -1.01807,0.256347 -0.77637,0 -1.42822,-0.432129 -0.64454,-0.439453 -0.64454,-1.911621 l 0,-0.79834 q 0,-1.091308 0.34424,-1.486816 0.34424,-0.395508 1.70655,-0.922852 1.45752,-0.571289 1.56005,-0.769043 0.10254,-0.197753 0.10254,-0.805664 0,-0.761718 -0.11718,-0.988769 -0.10987,-0.234375 -0.37354,-0.234375 -0.30029,0 -0.37353,0.197754 -0.0732,0.190429 -0.0732,1.003418 l 0,1.018066 z m 0.9375,1.333008 q -0.71045,0.520019 -0.82763,0.871582 -0.10987,0.351562 -0.10987,1.010742 0,0.754395 0.0952,0.974121 0.10254,0.219727 0.39551,0.219727 0.27832,0 0.35888,-0.168457 0.0879,-0.175781 0.0879,-0.908203 l 0,-1.999512 z"
       style="font-style:normal;font-variant:normal;font-weight:normal;font-stretch:condensed;font-size:15px;font-family:Impact;-inkscape-font-specification:'Impact Condensed';fill:#004990;fill-opacity:1;stroke:#004990;stroke-opacity:1;stroke-width:0.08797445;stroke-miterlimit:4;stroke-dasharray:none"
       id="path4227"
       inkscape:connector-curvature="0" />
    <path
       d="m 117.28027,57.280762 -0.84961,7.03125 q -0.19775,1.669922 -0.33691,2.277832 -0.13184,0.60791 -0.44678,1.003418 -0.31494,0.395508 -0.8789,0.578613 -0.55664,0.19043 -1.78711,0.19043 l -1.79444,0 0,-1.552735 q 0.68848,0 0.88623,-0.06592 0.19776,-0.07324 0.19776,-0.314941 0,-0.117188 -0.18311,-1.018066 l -1.61865,-8.129883 2.68799,0 0.9668,6.555175 0.46875,-6.555175 2.68798,0 z"
       style="font-style:normal;font-variant:normal;font-weight:normal;font-stretch:condensed;font-size:15px;font-family:Impact;-inkscape-font-specification:'Impact Condensed';fill:#004990;fill-opacity:1;stroke:#004990;stroke-opacity:1;stroke-width:0.08797445;stroke-miterlimit:4;stroke-dasharray:none"
       id="path4229"
       inkscape:connector-curvature="0" />
    <path
       d="m 124.56787,67 -2.95166,0 0,-2.67334 q -0.55664,0.527344 -1.77246,0.527344 -0.84229,0 -1.3623,-0.300293 -0.52002,-0.300293 -0.63721,-0.871582 -0.11719,-0.571289 -0.11719,-1.845703 l 0,-4.555664 2.95899,0 0,4.694824 q 0,0.776367 0.0732,1.047363 0.0732,0.270996 0.38818,0.270996 0.26367,0 0.36621,-0.241699 0.10254,-0.241699 0.10254,-0.974121 l 0,-4.797363 2.95166,0 0,9.719238 z"
       style="font-style:normal;font-variant:normal;font-weight:normal;font-stretch:condensed;font-size:15px;font-family:Impact;-inkscape-font-specification:'Impact Condensed';fill:#004990;fill-opacity:1;stroke:#004990;stroke-opacity:1;stroke-width:0.08797445;stroke-miterlimit:4;stroke-dasharray:none"
       id="path4231"
       inkscape:connector-curvature="0" />
    <path
       d="m 132.5,67 -2.94434,0 0,-3.581543 -1.06201,0 0,3.581543 -2.93701,0 0,-9.719238 2.93701,0 0,3.493652 1.06201,0 0,-3.493652 2.94434,0 0,9.719238 z"
       style="font-style:normal;font-variant:normal;font-weight:normal;font-stretch:condensed;font-size:15px;font-family:Impact;-inkscape-font-specification:'Impact Condensed';fill:#004990;fill-opacity:1;stroke:#004990;stroke-opacity:1;stroke-width:0.08797445;stroke-miterlimit:4;stroke-dasharray:none"
       id="path4233"
       inkscape:connector-curvature="0" />
    <path
       d="m 140.24902,60.693848 0,2.380371 q 0,1.311035 -0.13183,1.926269 -0.13184,0.60791 -0.56397,1.142578 -0.43213,0.527344 -1.11328,0.783692 -0.67383,0.249023 -1.55273,0.249023 -0.98145,0 -1.6626,-0.212402 -0.68115,-0.219727 -1.06201,-0.651856 -0.37354,-0.439453 -0.53467,-1.054687 -0.16113,-0.622559 -0.16113,-1.860352 l 0,-2.490234 q 0,-1.35498 0.29297,-2.116699 0.29296,-0.761719 1.05468,-1.223145 0.76172,-0.461426 1.94825,-0.461426 0.99609,0 1.70654,0.300293 0.71777,0.292969 1.10596,0.769043 0.38818,0.476075 0.52734,0.981446 0.14648,0.505371 0.14648,1.538086 z m -2.95898,-0.732422 q 0,-0.747071 -0.0806,-0.9375 -0.0806,-0.197754 -0.34424,-0.197754 -0.26367,0 -0.35156,0.197754 -0.0879,0.190429 -0.0879,0.9375 l 0,4.387207 q 0,0.688476 0.0879,0.900879 0.0879,0.205078 0.34424,0.205078 0.26367,0 0.34424,-0.19043 0.0879,-0.19043 0.0879,-0.820312 l 0,-4.482422 z"
       style="font-style:normal;font-variant:normal;font-weight:normal;font-stretch:condensed;font-size:15px;font-family:Impact;-inkscape-font-specification:'Impact Condensed';fill:#004990;fill-opacity:1;stroke:#004990;stroke-opacity:1;stroke-width:0.08797445;stroke-miterlimit:4;stroke-dasharray:none"
       id="path4235"
       inkscape:connector-curvature="0" />
    <path
       d="m 144.85596,61.118652 0,2.043457 -3.88916,0 0,-2.043457 3.88916,0 z"
       style="font-style:normal;font-variant:normal;font-weight:normal;font-stretch:condensed;font-size:15px;font-family:Impact;-inkscape-font-specification:'Impact Condensed';fill:#004990;fill-opacity:1;stroke:#004990;stroke-opacity:1;stroke-width:0.08797445;stroke-miterlimit:4;stroke-dasharray:none"
       id="path4237"
       inkscape:connector-curvature="0" />
    <path
       d="m 151.51367,57.280762 0,2.036133 -1.69189,0 0,7.683105 -2.95166,0 0,-7.683105 -1.69922,0 0,-2.036133 6.34277,0 z"
       style="font-style:normal;font-variant:normal;font-weight:normal;font-stretch:condensed;font-size:15px;font-family:Impact;-inkscape-font-specification:'Impact Condensed';fill:#004990;fill-opacity:1;stroke:#004990;stroke-opacity:1;stroke-width:0.08797445;stroke-miterlimit:4;stroke-dasharray:none"
       id="path4239"
       inkscape:connector-curvature="0" />
    <path
       d="m 158.80127,62.3125 -3.83057,0 0,2.102051 q 0,0.659179 0.0952,0.849609 0.0952,0.19043 0.36621,0.19043 0.33691,0 0.44678,-0.249024 0.11718,-0.256347 0.11718,-0.981445 l 0,-1.281738 2.80518,0 0,0.717773 q 0,0.900879 -0.11719,1.384278 -0.10986,0.483398 -0.52734,1.032714 -0.41748,0.549317 -1.06201,0.827637 -0.63721,0.270996 -1.60401,0.270996 -0.9375,0 -1.65527,-0.270996 -0.71777,-0.270996 -1.12061,-0.739746 -0.3955,-0.476074 -0.54931,-1.040039 -0.15381,-0.571289 -0.15381,-1.655273 l 0,-2.834473 q 0,-1.274414 0.34424,-2.006836 0.34424,-0.739746 1.12793,-1.12793 0.78369,-0.395508 1.80175,-0.395508 1.24512,0 2.05079,0.476075 0.81298,0.46875 1.13525,1.252441 0.32959,0.776367 0.32959,2.189941 l 0,1.289063 z m -2.96631,-1.582031 0,-0.710449 q 0,-0.754395 -0.0806,-0.974122 -0.0806,-0.219726 -0.32959,-0.219726 -0.30761,0 -0.38085,0.19043 -0.0733,0.183105 -0.0733,1.003418 l 0,0.710449 0.86426,0 z"
       style="font-style:normal;font-variant:normal;font-weight:normal;font-stretch:condensed;font-size:15px;font-family:Impact;-inkscape-font-specification:'Impact Condensed';fill:#004990;fill-opacity:1;stroke:#004990;stroke-opacity:1;stroke-width:0.08797445;stroke-miterlimit:4;stroke-dasharray:none"
       id="path4241"
       inkscape:connector-curvature="0" />
    <path
       d="m 165.63477,57.280762 -1.1792,4.643554 1.42822,5.075684 -2.87842,0 q -0.4248,-1.918945 -0.64453,-3.303223 Q 162.06787,65.425293 161.72363,67 l -2.47558,0 1.27441,-5.075684 -1.27441,-4.643554 2.47558,0 q 0.59326,2.973633 0.63721,3.376465 0.4248,-2.482911 0.64453,-3.376465 l 2.6294,0 z"
       style="font-style:normal;font-variant:normal;font-weight:normal;font-stretch:condensed;font-size:15px;font-family:Impact;-inkscape-font-specification:'Impact Condensed';fill:#004990;fill-opacity:1;stroke:#004990;stroke-opacity:1;stroke-width:0.08797445;stroke-miterlimit:4;stroke-dasharray:none"
       id="path4243"
       inkscape:connector-curvature="0" />
    <path
       d="m 173.22266,67 -2.94434,0 0,-3.581543 -1.06201,0 0,3.581543 -2.93701,0 0,-9.719238 2.93701,0 0,3.493652 1.06201,0 0,-3.493652 2.94434,0 0,9.719238 z"
       style="font-style:normal;font-variant:normal;font-weight:normal;font-stretch:condensed;font-size:15px;font-family:Impact;-inkscape-font-specification:'Impact Condensed';fill:#004990;fill-opacity:1;stroke:#004990;stroke-opacity:1;stroke-width:0.08797445;stroke-miterlimit:4;stroke-dasharray:none"
       id="path4245"
       inkscape:connector-curvature="0" />
    <path
       d="m 181.60889,67 -2.57813,0 0,-5.251465 -2.0581,5.251465 -2.69532,0 0,-9.719238 2.57813,0 0,5.207519 2.02148,-5.207519 2.73194,0 0,9.719238 z"
       style="font-style:normal;font-variant:normal;font-weight:normal;font-stretch:condensed;font-size:15px;font-family:Impact;-inkscape-font-specification:'Impact Condensed';fill:#004990;fill-opacity:1;stroke:#004990;stroke-opacity:1;stroke-width:0.08797445;stroke-miterlimit:4;stroke-dasharray:none"
       id="path4247"
       inkscape:connector-curvature="0" />
    <path
       d="m 189.40186,67 -2.95166,0 0,-2.67334 q -0.55665,0.527344 -1.77247,0.527344 -0.84228,0 -1.3623,-0.300293 -0.52002,-0.300293 -0.63721,-0.871582 -0.11718,-0.571289 -0.11718,-1.845703 l 0,-4.555664 2.95898,0 0,4.694824 q 0,0.776367 0.0732,1.047363 0.0732,0.270996 0.38819,0.270996 0.26367,0 0.36621,-0.241699 0.10254,-0.241699 0.10254,-0.974121 l 0,-4.797363 2.95166,0 0,9.719238 z"
       style="font-style:normal;font-variant:normal;font-weight:normal;font-stretch:condensed;font-size:15px;font-family:Impact;-inkscape-font-specification:'Impact Condensed';fill:#004990;fill-opacity:1;stroke:#004990;stroke-opacity:1;stroke-width:0.08797445;stroke-miterlimit:4;stroke-dasharray:none"
       id="path4249"
       inkscape:connector-curvature="0" />
    <path
       d="m 197.09229,62.3125 -3.83057,0 0,2.102051 q 0,0.659179 0.0952,0.849609 0.0952,0.19043 0.36621,0.19043 0.33692,0 0.44678,-0.249024 0.11719,-0.256347 0.11719,-0.981445 l 0,-1.281738 2.80518,0 0,0.717773 q 0,0.900879 -0.11719,1.384278 -0.10987,0.483398 -0.52735,1.032714 -0.41748,0.549317 -1.06201,0.827637 -0.6372,0.270996 -1.604,0.270996 -0.9375,0 -1.65528,-0.270996 -0.71777,-0.270996 -1.1206,-0.739746 -0.39551,-0.476074 -0.54932,-1.040039 -0.15381,-0.571289 -0.15381,-1.655273 l 0,-2.834473 q 0,-1.274414 0.34424,-2.006836 0.34424,-0.739746 1.12793,-1.12793 0.78369,-0.395508 1.80176,-0.395508 1.24512,0 2.05078,0.476075 0.81299,0.46875 1.13526,1.252441 0.32959,0.776367 0.32959,2.189941 l 0,1.289063 z m -2.96631,-1.582031 0,-0.710449 q 0,-0.754395 -0.0806,-0.974122 -0.0806,-0.219726 -0.32959,-0.219726 -0.30762,0 -0.38086,0.19043 -0.0732,0.183105 -0.0732,1.003418 l 0,0.710449 0.86426,0 z"
       style="font-style:normal;font-variant:normal;font-weight:normal;font-stretch:condensed;font-size:15px;font-family:Impact;-inkscape-font-specification:'Impact Condensed';fill:#004990;fill-opacity:1;stroke:#004990;stroke-opacity:1;stroke-width:0.08797445;stroke-miterlimit:4;stroke-dasharray:none"
       id="path4251"
       inkscape:connector-curvature="0" />
    <path
       d="m 204.60693,60.950195 -2.79052,0 0,-1.120605 q 0,-0.585938 -0.0952,-0.791016 -0.0952,-0.212402 -0.35156,-0.212402 -0.25635,0 -0.34424,0.183105 -0.0879,0.183106 -0.0879,0.820313 l 0,4.584961 q 0,0.520019 0.13184,0.783691 0.13183,0.256348 0.38818,0.256348 0.30029,0 0.40283,-0.270996 0.10986,-0.270996 0.10986,-1.025391 l 0,-1.157226 2.63672,0 q -0.007,1.16455 -0.0879,1.750488 -0.0732,0.578613 -0.49072,1.193847 -0.41016,0.607911 -1.07666,0.922852 -0.6665,0.307617 -1.64795,0.307617 -1.25244,0 -1.98486,-0.424804 -0.73242,-0.432129 -1.04004,-1.201172 -0.30029,-0.776368 -0.30029,-2.197266 l 0,-2.76123 q 0,-1.237793 0.24902,-1.867676 0.24902,-0.629883 1.06201,-1.120606 0.81299,-0.498047 1.97754,-0.498047 1.15723,0 1.97754,0.490723 0.82031,0.490723 1.09131,1.237793 0.27099,0.74707 0.27099,2.116699 z"
       style="font-style:normal;font-variant:normal;font-weight:normal;font-stretch:condensed;font-size:15px;font-family:Impact;-inkscape-font-specification:'Impact Condensed';fill:#004990;fill-opacity:1;stroke:#004990;stroke-opacity:1;stroke-width:0.08797445;stroke-miterlimit:4;stroke-dasharray:none"
       id="path4253"
       inkscape:connector-curvature="0" />
    <path
       d="m 208.40088,57.280762 0,3.779297 q 0.93017,0 0.93017,-0.98877 l 0,-1.647949 q 0,-0.996094 0.32959,-1.142578 l 2.84913,0 q -0.32959,0.476074 -0.32959,1.40625 l 0,1.35498 q 0,0.710449 -0.57862,1.179199 -0.2124,0.175782 -0.89355,0.498047 -0.43946,0.212403 -0.98877,0.227051 0.25635,0.04395 0.95947,0.241699 1.51611,0.483399 1.51611,1.691895 l 0,1.706543 q 0,0.9375 0.32959,1.413574 l -2.84912,0 q -0.32959,-0.446777 -0.32959,-1.142578 l 0,-2.050781 q 0,-0.98877 -0.94482,-0.98877 l 0,4.182129 -2.92236,0 0,-9.719238 2.92236,0 z"
       style="font-style:normal;font-variant:normal;font-weight:normal;font-stretch:condensed;font-size:15px;font-family:Impact;-inkscape-font-specification:'Impact Condensed';fill:#004990;fill-opacity:1;stroke:#004990;stroke-opacity:1;stroke-width:0.08797445;stroke-miterlimit:4;stroke-dasharray:none"
       id="path4255"
       inkscape:connector-curvature="0" />
    <path
       d="m 220.48584,67 -2.57813,0 0,-5.251465 -2.0581,5.251465 -2.69531,0 0,-9.719238 2.57812,0 0,5.207519 2.02149,-5.207519 2.73193,0 0,9.719238 z"
       style="font-style:normal;font-variant:normal;font-weight:normal;font-stretch:condensed;font-size:15px;font-family:Impact;-inkscape-font-specification:'Impact Condensed';fill:#004990;fill-opacity:1;stroke:#004990;stroke-opacity:1;stroke-width:0.08797445;stroke-miterlimit:4;stroke-dasharray:none"
       id="path4257"
       inkscape:connector-curvature="0" />
    <path
       d="m 228.86475,67 -2.57813,0 0,-5.251465 -2.0581,5.251465 -2.69532,0 0,-9.719238 2.57813,0 0,5.207519 2.02148,-5.207519 2.73194,0 0,9.719238 z m -2.84913,-12.583008 1.24512,0 q -0.0439,0.996094 -0.58594,1.604004 -0.53466,0.60791 -1.49414,0.60791 -0.96679,0 -1.50146,-0.60791 -0.52734,-0.615234 -0.57129,-1.604004 l 1.24512,0 q 0.0879,1.003418 0.82763,1.003418 0.74707,0 0.83496,-1.003418 z"
       style="font-style:normal;font-variant:normal;font-weight:normal;font-stretch:condensed;font-size:15px;font-family:Impact;-inkscape-font-specification:'Impact Condensed';fill:#004990;fill-opacity:1;stroke:#004990;stroke-opacity:1;stroke-width:0.08797445;stroke-miterlimit:4;stroke-dasharray:none"
       id="path4259"
       inkscape:connector-curvature="0" />
    <path
       d="m 232.54883,67 0,-9.719238 2.93701,0 0,7.675781 1.04736,0 0,-7.675781 2.94434,0 0,7.675781 0.62988,0 0,3.918457 -1.97754,0 0,-1.875 -5.58105,0 z"
       style="font-style:normal;font-variant:normal;font-weight:normal;font-stretch:condensed;font-size:15px;font-family:Impact;-inkscape-font-specification:'Impact Condensed';fill:#004990;fill-opacity:1;stroke:#004990;stroke-opacity:1;stroke-width:0.08797445;stroke-miterlimit:4;stroke-dasharray:none"
       id="path4261"
       inkscape:connector-curvature="0" />
    <path
       d="m 247.5415,62.3125 -3.83056,0 0,2.102051 q 0,0.659179 0.0952,0.849609 0.0952,0.19043 0.36621,0.19043 0.33692,0 0.44678,-0.249024 0.11719,-0.256347 0.11719,-0.981445 l 0,-1.281738 2.80517,0 0,0.717773 q 0,0.900879 -0.11718,1.384278 -0.10987,0.483398 -0.52735,1.032714 -0.41748,0.549317 -1.06201,0.827637 -0.63721,0.270996 -1.604,0.270996 -0.9375,0 -1.65528,-0.270996 -0.71777,-0.270996 -1.1206,-0.739746 -0.39551,-0.476074 -0.54932,-1.040039 -0.15381,-0.571289 -0.15381,-1.655273 l 0,-2.834473 q 0,-1.274414 0.34424,-2.006836 0.34424,-0.739746 1.12793,-1.12793 0.78369,-0.395508 1.80176,-0.395508 1.24512,0 2.05078,0.476075 0.81299,0.46875 1.13525,1.252441 0.32959,0.776367 0.32959,2.189941 l 0,1.289063 z m -2.9663,-1.582031 0,-0.710449 q 0,-0.754395 -0.0806,-0.974122 -0.0806,-0.219726 -0.32959,-0.219726 -0.30762,0 -0.38086,0.19043 -0.0732,0.183105 -0.0732,1.003418 l 0,0.710449 0.86426,0 z"
       style="font-style:normal;font-variant:normal;font-weight:normal;font-stretch:condensed;font-size:15px;font-family:Impact;-inkscape-font-specification:'Impact Condensed';fill:#004990;fill-opacity:1;stroke:#004990;stroke-opacity:1;stroke-width:0.08797445;stroke-miterlimit:4;stroke-dasharray:none"
       id="path4263"
       inkscape:connector-curvature="0" />
    <path
       d="m 255.45898,67 -2.94433,0 0,-3.581543 -1.06201,0 0,3.581543 -2.93702,0 0,-9.719238 2.93702,0 0,3.493652 1.06201,0 0,-3.493652 2.94433,0 0,9.719238 z"
       style="font-style:normal;font-variant:normal;font-weight:normal;font-stretch:condensed;font-size:15px;font-family:Impact;-inkscape-font-specification:'Impact Condensed';fill:#004990;fill-opacity:1;stroke:#004990;stroke-opacity:1;stroke-width:0.08797445;stroke-miterlimit:4;stroke-dasharray:none"
       id="path4265"
       inkscape:connector-curvature="0" />
    <path
       d="m 262.37305,57.280762 0,2.036133 -1.6919,0 0,7.683105 -2.95166,0 0,-7.683105 -1.69922,0 0,-2.036133 6.34278,0 z"
       style="font-style:normal;font-variant:normal;font-weight:normal;font-stretch:condensed;font-size:15px;font-family:Impact;-inkscape-font-specification:'Impact Condensed';fill:#004990;fill-opacity:1;stroke:#004990;stroke-opacity:1;stroke-width:0.08797445;stroke-miterlimit:4;stroke-dasharray:none"
       id="path4267"
       inkscape:connector-curvature="0" />
    <path
       d="m 265.96924,57.280762 -0.0513,0.856933 q 0.39551,-0.520019 0.87158,-0.776367 0.47607,-0.256348 1.04004,-0.256348 0.68848,0 1.18652,0.373536 0.50537,0.366211 0.62989,0.849609 0.12451,0.483398 0.12451,1.640625 l 0,4.094238 q 0,1.325684 -0.16114,1.889649 -0.1538,0.55664 -0.64453,0.893554 -0.48339,0.32959 -1.17187,0.32959 -0.54932,0 -1.01807,-0.256347 -0.46875,-0.256348 -0.85693,-0.761719 l 0,2.226562 -2.95899,0 0,-11.103515 3.01026,0 z m 0.84228,2.827148 q 0,-0.900879 -0.0659,-1.091308 -0.0659,-0.19043 -0.36622,-0.19043 -0.29296,0 -0.38085,0.219726 -0.0806,0.219727 -0.0806,1.062012 l 0,4.02832 q 0,0.878907 0.0879,1.098633 0.0879,0.219727 0.38086,0.219727 0.28564,0 0.35156,-0.197754 0.0732,-0.205078 0.0732,-0.981445 l 0,-4.167481 z"
       style="font-style:normal;font-variant:normal;font-weight:normal;font-stretch:condensed;font-size:15px;font-family:Impact;-inkscape-font-specification:'Impact Condensed';fill:#004990;fill-opacity:1;stroke:#004990;stroke-opacity:1;stroke-width:0.08797445;stroke-miterlimit:4;stroke-dasharray:none"
       id="path4269"
       inkscape:connector-curvature="0" />
  </g>
  <path
     inkscape:connector-curvature="0"
     id="path4271"
     d="m 61.928093,109.84489 26.702488,0 0,11.60977 -26.702488,0 z"
     style="fill:#004990;fill-opacity:1;fill-rule:evenodd;stroke:#004990;stroke-width:1.16097784px;stroke-linecap:butt;stroke-linejoin:miter;stroke-opacity:1;filter:url(#filter4191)"
     transform="matrix(-0.64869225,0.65951156,-0.66309286,-0.64518873,289.10732,56.436668)" />
  <path
     inkscape:connector-curvature="0"
     id="path4273"
     d="m 72.496262,117.43017 26.702488,0 0,11.60978 -26.702488,0 z"
     style="fill:#959ca1;fill-opacity:1;fill-rule:evenodd;stroke:#959ca1;stroke-width:1.16097784px;stroke-linecap:butt;stroke-linejoin:miter;stroke-opacity:1;filter:url(#filter4203)"
     transform="matrix(-0.64869225,0.65951156,-0.66309286,-0.64518873,289.10732,56.436668)" />
</svg>
